<svg width="142" height="142" viewBox="0 0 142 142" fill="none" xmlns="http://www.w3.org/2000/svg">
    <rect width="142" height="142" rx="71" fill="#276b18" />
    <path
        d="M40.0088 57.0742C40.0088 53.8874 40.6175 50.8975 41.835 48.1045C43.0524 45.3115 44.6995 42.8766 46.7764 40.7998C48.889 38.6872 51.3418 37.0221 54.1348 35.8047C56.9277 34.5872 59.9176 33.9785 63.1045 33.9785H98.4463V49.3936H63.1045C62.0303 49.3936 61.0277 49.5905 60.0967 49.9844C59.1657 50.3783 58.3421 50.9333 57.626 51.6494C56.9456 52.3298 56.4085 53.1354 56.0146 54.0664C55.6208 54.9974 55.4238 56 55.4238 57.0742C55.4238 58.1484 55.6208 59.1689 56.0146 60.1357C56.4085 61.0667 56.9456 61.8903 57.626 62.6064C58.3421 63.2868 59.1657 63.8239 60.0967 64.2178C61.0277 64.6117 62.0303 64.8086 63.1045 64.8086H78.5195C81.7064 64.8086 84.6963 65.4173 87.4893 66.6348C90.318 67.8164 92.7708 69.4635 94.8477 71.5762C96.9603 73.653 98.6074 76.1058 99.7891 78.9346C101.007 81.7275 101.615 84.7174 101.615 87.9043C101.615 91.0911 101.007 94.0811 99.7891 96.874C98.6074 99.667 96.9603 102.12 94.8477 104.232C92.7708 106.309 90.318 107.956 87.4893 109.174C84.6963 110.391 81.7064 111 78.5195 111H44.3057V95.585H78.5195C79.5938 95.585 80.5964 95.388 81.5273 94.9941C82.4583 94.6003 83.264 94.0632 83.9443 93.3828C84.6605 92.6667 85.2155 91.8431 85.6094 90.9121C86.0033 89.9811 86.2002 88.9785 86.2002 87.9043C86.2002 86.8301 86.0033 85.8275 85.6094 84.8965C85.2155 83.9655 84.6605 83.1598 83.9443 82.4795C83.264 81.7633 82.4583 81.2083 81.5273 80.8145C80.5964 80.4206 79.5938 80.2236 78.5195 80.2236H63.1045C59.9176 80.2236 56.9277 79.6149 54.1348 78.3975C51.3418 77.18 48.889 75.5329 46.7764 73.4561C44.6995 71.3434 43.0524 68.8906 41.835 66.0977C40.6175 63.2689 40.0088 60.2611 40.0088 57.0742Z"
        fill="url(#paint1_linear_101_2)" />
    <defs>
        <linearGradient id="paint1_linear_101_2" x1="94" y1="35.5" x2="31" y2="139.5" gradientUnits="userSpaceOnUse">
            <stop stop-color="white" />
            <stop offset="1" stop-color="white" stop-opacity="0.19" />
        </linearGradient>
    </defs>
</svg>